<svg width="164" height="71" viewBox="0 0 164 71" fill="none" xmlns="http://www.w3.org/2000/svg">
<path d="M31.8321 0.903047C14.8359 1.95744 1.25777 13.8692 0.0558635 28.7795C-0.0380728 29.9431 1.00919 30.9337 2.33851 30.9337H32C32.6069 30.9337 33.1889 30.7222 33.618 30.3458C34.0471 29.9693 34.2882 29.4587 34.2882 28.9263V2.90534C34.2882 1.73896 33.159 0.821062 31.8328 0.902836L31.8321 0.903047ZM73.4006 28.9544C72.1987 14.0441 58.6206 2.1324 41.6241 1.078C40.2977 0.995597 39.1685 1.91434 39.1685 3.08051V29.1017C39.1685 29.6341 39.4096 30.1447 39.8387 30.5211C40.2679 30.8976 40.8499 31.1091 41.4567 31.1091H71.1177C72.4473 31.1091 73.4936 30.1185 73.4004 28.9551L73.4006 28.9544ZM70.3966 34.8339C53.4004 35.8883 39.8222 47.8 38.6203 62.7103C38.5264 63.874 39.5737 64.8646 40.903 64.8646H70.5645C71.1713 64.8646 71.7533 64.6531 72.1825 64.2766C72.6116 63.9002 72.8526 63.3896 72.8526 62.8572V36.8362C72.8526 35.6698 71.7235 34.7519 70.3973 34.8337L70.3966 34.8339ZM0.0565839 37.2918C1.25849 52.2021 14.8366 64.1138 31.8328 65.1682C33.1593 65.2506 34.2884 64.3319 34.2884 63.1657V37.1445C34.2884 36.6121 34.0473 36.1015 33.6182 35.7251C33.1891 35.3486 32.6071 35.1371 32.0002 35.1371H2.339C1.00944 35.1371 -0.036865 36.1277 0.0563487 37.2911L0.0565839 37.2918Z" fill="white"/>
<path d="M105.1 59.3232H104.796L95.8576 43.5108L93.5338 38.7167L92.4726 43.5108L89.0382 59.3232H83.4319L91.1073 25.4385H91.7157L101.917 43.7432L104.948 49.8738L107.979 43.7432L117.978 25.4385H118.537L126.517 59.3232H120.96L117.221 43.5108L116.111 38.7167L114.091 43.5108L105.1 59.3232ZM126.771 59.3232L144.552 25.3933H145.107L162.987 59.3232H156.472L153.289 52.6857H136.268L133.085 59.3232H126.771ZM144.906 35.2139H144.803L142.582 39.824L138.539 48.0304H151.067L147.078 39.8692L144.906 35.2139Z" fill="white"/>
</svg>
